<svg width="26" height="28" viewBox="0 0 26 28" fill="none" xmlns="http://www.w3.org/2000/svg">
<g filter="url(#filter0_d_570573_1689)">
<path fill-rule="evenodd" clip-rule="evenodd" d="M4.59961 6.00078C4.59961 5.68252 4.72604 5.3773 4.95108 5.15225C5.17612 4.92721 5.48135 4.80078 5.79961 4.80078H20.1996C20.5179 4.80078 20.8231 4.92721 21.0481 5.15225C21.2732 5.3773 21.3996 5.68252 21.3996 6.00078C21.3996 6.31904 21.2732 6.62427 21.0481 6.84931C20.8231 7.07435 20.5179 7.20078 20.1996 7.20078H5.79961C5.48135 7.20078 5.17612 7.07435 4.95108 6.84931C4.72604 6.62427 4.59961 6.31904 4.59961 6.00078Z" fill="#2F2F37"/>
<path fill-rule="evenodd" clip-rule="evenodd" d="M4.59961 12.0008C4.59961 11.6825 4.72604 11.3773 4.95108 11.1523C5.17612 10.9272 5.48135 10.8008 5.79961 10.8008H20.1996C20.5179 10.8008 20.8231 10.9272 21.0481 11.1523C21.2732 11.3773 21.3996 11.6825 21.3996 12.0008C21.3996 12.319 21.2732 12.6243 21.0481 12.8493C20.8231 13.0744 20.5179 13.2008 20.1996 13.2008H5.79961C5.48135 13.2008 5.17612 13.0744 4.95108 12.8493C4.72604 12.6243 4.59961 12.319 4.59961 12.0008Z" fill="#2F2F37"/>
<path fill-rule="evenodd" clip-rule="evenodd" d="M4.59961 18.0008C4.59961 17.6825 4.72604 17.3773 4.95108 17.1523C5.17612 16.9272 5.48135 16.8008 5.79961 16.8008H20.1996C20.5179 16.8008 20.8231 16.9272 21.0481 17.1523C21.2732 17.3773 21.3996 17.6825 21.3996 18.0008C21.3996 18.319 21.2732 18.6243 21.0481 18.8493C20.8231 19.0744 20.5179 19.2008 20.1996 19.2008H5.79961C5.48135 19.2008 5.17612 19.0744 4.95108 18.8493C4.72604 18.6243 4.59961 18.319 4.59961 18.0008Z" fill="#2F2F37"/>
</g>
<defs>
<filter id="filter0_d_570573_1689" x="-3" y="0" width="32" height="32" filterUnits="userSpaceOnUse" color-interpolation-filters="sRGB">
<feFlood flood-opacity="0" result="BackgroundImageFix"/>
<feColorMatrix in="SourceAlpha" type="matrix" values="0 0 0 0 0 0 0 0 0 0 0 0 0 0 0 0 0 0 127 0" result="hardAlpha"/>
<feOffset dy="4"/>
<feGaussianBlur stdDeviation="2"/>
<feComposite in2="hardAlpha" operator="out"/>
<feColorMatrix type="matrix" values="0 0 0 0 0 0 0 0 0 0 0 0 0 0 0 0 0 0 0.25 0"/>
<feBlend mode="normal" in2="BackgroundImageFix" result="effect1_dropShadow_570573_1689"/>
<feBlend mode="normal" in="SourceGraphic" in2="effect1_dropShadow_570573_1689" result="shape"/>
</filter>
</defs>
</svg>
