<svg width="26" height="28" fill="none" xmlns="http://www.w3.org/2000/svg"><g filter="url(#a)" fill-rule="evenodd" clip-rule="evenodd" fill="#2F2F37"><path d="M4.6 6a1.2 1.2 0 0 1 1.2-1.2h14.4a1.2 1.2 0 1 1 0 2.4H5.8A1.2 1.2 0 0 1 4.6 6ZM4.6 12a1.2 1.2 0 0 1 1.2-1.2h14.4a1.2 1.2 0 1 1 0 2.4H5.8A1.2 1.2 0 0 1 4.6 12ZM4.6 18a1.2 1.2 0 0 1 1.2-1.2h14.4a1.2 1.2 0 1 1 0 2.4H5.8A1.2 1.2 0 0 1 4.6 18Z"/></g><defs><filter id="a" x="-3" y="0" width="32" height="32" filterUnits="userSpaceOnUse" color-interpolation-filters="sRGB"><feFlood flood-opacity="0" result="BackgroundImageFix"/><feColorMatrix in="SourceAlpha" values="0 0 0 0 0 0 0 0 0 0 0 0 0 0 0 0 0 0 127 0" result="hardAlpha"/><feOffset dy="4"/><feGaussianBlur stdDeviation="2"/><feComposite in2="hardAlpha" operator="out"/><feColorMatrix values="0 0 0 0 0 0 0 0 0 0 0 0 0 0 0 0 0 0 0.25 0"/><feBlend in2="BackgroundImageFix" result="effect1_dropShadow_570573_1689"/><feBlend in="SourceGraphic" in2="effect1_dropShadow_570573_1689" result="shape"/></filter></defs></svg>